<svg width="44" height="44" viewBox="0 0 44 44" fill="none" xmlns="http://www.w3.org/2000/svg">
<g id="Quotes">
<path id="Vector" d="M24.0625 31.625V16.5C24.0648 14.3127 24.9347 12.2156 26.4814 10.6689C28.0281 9.1222 30.1252 8.25228 32.3125 8.25C32.6772 8.25 33.0269 8.39487 33.2848 8.65273C33.5426 8.91059 33.6875 9.26033 33.6875 9.625C33.6875 9.98967 33.5426 10.3394 33.2848 10.5973C33.0269 10.8551 32.6772 11 32.3125 11C30.8538 11 29.4549 11.5795 28.4234 12.6109C27.392 13.6424 26.8125 15.0413 26.8125 16.5V17.875H37.125C37.8543 17.875 38.5538 18.1647 39.0695 18.6805C39.5853 19.1962 39.875 19.8957 39.875 20.625V31.625C39.875 32.3543 39.5853 33.0538 39.0695 33.5695C38.5538 34.0853 37.8543 34.375 37.125 34.375H26.8125C26.0832 34.375 25.3837 34.0853 24.868 33.5695C24.3522 33.0538 24.0625 32.3543 24.0625 31.625ZM6.875 34.375L17.1875 34.375C17.9168 34.375 18.6163 34.0853 19.132 33.5695C19.6478 33.0538 19.9375 32.3543 19.9375 31.625V20.625C19.9375 19.8957 19.6478 19.1962 19.132 18.6805C18.6163 18.1647 17.9168 17.875 17.1875 17.875H6.875V16.5C6.875 15.0413 7.45446 13.6424 8.48591 12.6109C9.51736 11.5795 10.9163 11 12.375 11C12.7397 11 13.0894 10.8551 13.3473 10.5973C13.6051 10.3394 13.75 9.98967 13.75 9.625C13.75 9.26033 13.6051 8.91059 13.3473 8.65273C13.0894 8.39487 12.7397 8.25 12.375 8.25C10.1877 8.25228 8.09056 9.1222 6.54388 10.6689C4.9972 12.2156 4.12727 14.3127 4.125 16.5V31.625C4.125 32.3543 4.41473 33.0538 4.93046 33.5695C5.44618 34.0853 6.14565 34.375 6.875 34.375Z" fill="#1645EC"/>
</g>
</svg>
