<svg width="46" height="44" viewBox="0 0 46 44" fill="none" xmlns="http://www.w3.org/2000/svg">
<g id="Quotes">
<path id="Vector" d="M20.8438 12.375V27.5C20.8414 29.6873 19.9319 31.7844 18.3149 33.3311C16.6979 34.8778 14.5055 35.7477 12.2188 35.75C11.8375 35.75 11.4719 35.6051 11.2023 35.3473C10.9327 35.0894 10.7812 34.7397 10.7812 34.375C10.7812 34.0103 10.9327 33.6606 11.2023 33.4027C11.4719 33.1449 11.8375 33 12.2188 33C13.7437 33 15.2063 32.4205 16.2846 31.3891C17.3629 30.3576 17.9688 28.9587 17.9688 27.5V26.125H7.1875C6.425 26.125 5.69373 25.8353 5.15457 25.3195C4.6154 24.8038 4.3125 24.1043 4.3125 23.375V12.375C4.3125 11.6457 4.6154 10.9462 5.15457 10.4305C5.69373 9.91473 6.425 9.625 7.1875 9.625H17.9688C18.7312 9.625 19.4625 9.91473 20.0017 10.4305C20.5408 10.9462 20.8438 11.6457 20.8438 12.375ZM38.8125 9.625H28.0312C27.2688 9.625 26.5375 9.91473 25.9983 10.4305C25.4592 10.9462 25.1562 11.6457 25.1562 12.375V23.375C25.1562 24.1043 25.4592 24.8038 25.9983 25.3195C26.5375 25.8353 27.2688 26.125 28.0312 26.125H38.8125V27.5C38.8125 28.9587 38.2067 30.3576 37.1284 31.3891C36.05 32.4205 34.5875 33 33.0625 33C32.6813 33 32.3156 33.1449 32.046 33.4027C31.7764 33.6606 31.625 34.0103 31.625 34.375C31.625 34.7397 31.7764 35.0894 32.046 35.3473C32.3156 35.6051 32.6813 35.75 33.0625 35.75C35.3493 35.7477 37.5417 34.8778 39.1587 33.3311C40.7757 31.7844 41.6851 29.6873 41.6875 27.5V12.375C41.6875 11.6457 41.3846 10.9462 40.8454 10.4305C40.3063 9.91473 39.575 9.625 38.8125 9.625Z" fill="#1645EC"/>
</g>
</svg>
