<svg width="249" height="38" xmlns="http://www.w3.org/2000/svg" xmlns:xlink="http://www.w3.org/1999/xlink" xml:space="preserve" overflow="hidden"><defs><clipPath id="clip0"><rect x="963" y="458" width="249" height="38"/></clipPath></defs><g clip-path="url(#clip0)" transform="translate(-963 -458)"><path d="M242.036 0.224833 223.024 0.224833C221.717 0.224833 220.766 1.23183 220.766 2.50958L220.766 4.27975C220.766 5.5575 221.717 6.49642 223.024 6.49642L229.332 6.49642 229.332 35.5348C229.332 36.8125 230.372 37.753 231.589 37.753L233.581 37.753C234.777 37.753 235.839 36.7903 235.839 35.5363L235.839 6.498 242.036 6.498C243.387 6.498 244.294 5.53375 244.294 4.27975L244.294 2.50958C244.294 1.23183 243.387 0.224833 242.036 0.224833ZM215.408 0.224833 213.416 0.224833C212.164 0.237008 211.155 1.25713 211.158 2.50958L211.158 16.1104 200.246 16.1104 200.246 2.50958C200.249 1.25713 199.24 0.237008 197.988 0.224833L195.996 0.224833C194.747 0.245493 193.745 1.26064 193.738 2.50958L193.738 35.5585C193.738 36.8347 194.779 37.7752 195.996 37.7752L197.988 37.7752C199.183 37.7752 200.246 36.8125 200.246 35.5585L200.246 22.2933 211.158 22.2933 211.158 35.5363C211.158 36.8125 212.198 37.753 213.416 37.753L215.408 37.753C216.603 37.753 217.666 36.7903 217.666 35.5363L217.666 2.508C217.659 1.25906 216.657 0.243909 215.408 0.22325ZM185.727 16.1104 177.56 16.1104C176.364 16.1104 175.566 17.0288 175.566 18.126L175.566 20.0529C175.566 21.1739 176.364 22.0701 177.56 22.0701L182.961 22.0701 182.961 26.4828C182.961 29.5751 180.703 31.7933 177.56 31.7933L176.298 31.7933C172.889 31.7933 170.853 29.3518 170.853 26.2833L170.853 11.6945C170.853 8.60225 172.911 6.22725 176.298 6.22725L177.56 6.22725C180.016 6.22725 181.566 7.59367 182.606 9.27358 183.402 10.6859 184.952 11.2005 186.457 10.3946L187.099 10.0368C188.406 9.3195 188.847 8.06392 188.361 6.78775 186.434 2.33067 182.229 0 177.626 0L176.165 0C169.569 0 164.412 4.57108 164.412 11.3604L164.412 26.6633C164.412 33.4511 169.569 38.0222 176.165 38.0222L177.56 38.0222C184.42 38.0222 189.269 33.4511 189.269 26.6633L189.269 19.4481C189.291 17.6336 187.585 16.1104 185.727 16.1104ZM157.55 0.224833 155.447 0.224833C154.141 0.224833 153.034 1.14317 153.034 2.50958L153.034 5.44508C153.034 6.8115 154.142 7.66175 155.447 7.66175L157.55 7.66175C158.856 7.66175 159.963 6.8115 159.963 5.44508L159.963 2.50958C159.963 1.14317 158.856 0.224833 157.55 0.224833ZM157.505 11.248 155.513 11.248C154.265 11.2687 153.261 12.2838 153.256 13.5328L153.256 35.5569C153.256 36.8347 154.296 37.7752 155.513 37.7752L157.505 37.7752C158.701 37.7752 159.763 36.8125 159.763 35.5585L159.763 13.5328C159.758 12.2832 158.755 11.2671 157.505 11.2464ZM147.635 31.4577 146.329 31.4577C142.964 31.4577 140.462 28.7692 140.462 25.3191L140.462 2.44308C140.462 1.16533 139.512 0.224833 138.206 0.224833L136.213 0.224833C134.952 0.224833 133.956 1.1875 133.956 2.4415L133.956 25.9682C133.956 33.2722 138.958 37.9778 145.776 37.9778L147.567 37.9778C148.873 37.9778 149.913 37.0595 149.913 35.9607L149.913 33.4748C149.935 32.376 148.938 31.4577 147.633 31.4577ZM117.863 0 116.603 0C109.852 0 105.358 4.90833 105.358 11.2021L105.358 35.5585C105.358 36.8347 106.356 37.7752 107.616 37.7752L109.674 37.7752C110.936 37.7752 111.866 36.8125 111.866 35.5585L111.866 11.6945C111.866 8.71467 113.968 6.42833 116.912 6.42833L117.555 6.42833C120.498 6.42833 122.556 8.71467 122.556 11.6945L122.556 35.5332C122.556 36.8109 123.552 37.7514 124.814 37.7514L126.806 37.7514C128.068 37.7514 129.064 36.7888 129.064 35.5348L129.064 11.2005C129.086 4.90833 124.526 0 117.863 0ZM89.3317 0 87.9383 0C81.3422 0 76.1852 4.57108 76.1852 11.3604L76.1852 26.6633C76.1852 33.4511 81.3422 38.0222 87.9383 38.0222L89.3998 38.0222C94.0041 38.0222 98.2094 35.6931 100.157 31.2328 100.665 29.9567 100.201 28.7011 98.895 27.9838L98.2538 27.626C96.748 26.8185 95.1979 27.3125 94.4015 28.747 93.3613 30.4269 91.789 31.7933 89.3554 31.7933L88.0935 31.7933C84.6846 31.7933 82.6484 29.4183 82.6484 26.3261L82.6484 22.0923 97.5222 22.0923C99.3827 22.0923 101.086 20.5691 101.086 18.753L101.086 11.3588C101.042 4.57267 96.1938 0 89.3333 0ZM94.734 16.1104 82.6263 16.1104 82.6263 11.6945C82.6263 8.60225 84.6846 6.18292 88.0729 6.18292L89.3333 6.18292C92.4762 6.18292 94.7324 8.39958 94.7324 11.4918L94.7324 16.1073ZM60.0495 0 58.6562 0C52.0584 0 46.9015 4.57108 46.9015 11.3604L46.9015 26.6633C46.9015 33.4511 52.0584 38.0222 58.6546 38.0222L60.116 38.0222C64.7188 38.0222 68.9241 35.6931 70.8732 31.2328 71.3814 29.9567 70.9175 28.7011 69.6113 27.9838L68.9684 27.626C67.4643 26.8185 65.9142 27.3125 65.1178 28.747 64.0775 30.4269 62.5053 31.7933 60.0717 31.7933L58.8098 31.7933C55.4008 31.7933 53.3647 29.4183 53.3647 26.3261L53.3647 22.0923 68.2385 22.0923C70.0973 22.0923 71.801 20.5691 71.801 18.753L71.801 11.3588C71.782 4.57267 66.9117 0 60.0511 0ZM65.4724 16.1104 53.3441 16.1104 53.3441 11.6945C53.3441 8.60225 55.4024 6.18292 58.7876 6.18292L60.0495 6.18292C63.1924 6.18292 65.4487 8.39958 65.4487 11.4918L65.4487 16.1073 65.4724 16.1073ZM42.94 0 41.1461 0C34.3298 0 29.3281 4.70567 29.3281 12.0096L29.3281 35.5348C29.3281 36.8125 30.3224 37.753 31.5843 37.753L33.5762 37.753C34.8824 37.753 35.834 36.7903 35.834 35.5363L35.834 12.6572C35.834 9.20708 38.3357 6.51858 41.7003 6.51858L43.0065 6.51858C44.3128 6.51858 45.3087 5.60025 45.3087 4.50142L45.3087 2.01558C45.2865 0.918333 44.2463 0 42.94 0ZM21.3148 16.1104 13.1702 16.1104C11.9748 16.1104 11.1783 17.0288 11.1783 18.126L11.1783 20.0529C11.1783 21.1739 11.9748 22.0701 13.1702 22.0701L18.5693 22.0701 18.5693 26.4828C18.5693 29.5751 16.3131 31.7933 13.1702 31.7933L11.9067 31.7933C8.49775 31.7933 6.46158 29.3518 6.46158 26.2833L6.46158 11.6945C6.46158 8.60225 8.51992 6.22725 11.9067 6.22725L13.1686 6.22725C15.6243 6.22725 17.1744 7.59367 18.2147 9.27358 19.0111 10.6859 20.5612 11.2005 22.0653 10.3946L22.7082 10.0368C24.0144 9.3195 24.4562 8.06392 23.9701 6.78775 22.0242 2.33067 17.8173 0 13.2145 0L11.7531 0C5.15692 0 0 4.57108 0 11.3604L0 26.6633C0 33.4511 5.15692 38.0222 11.7531 38.0222L13.1464 38.0222C20.0086 38.0222 24.8568 33.4511 24.8568 26.6633L24.8568 19.4481C24.8789 17.6336 23.1737 16.1104 21.3148 16.1104Z" fill="#3BBFAD" transform="matrix(1.0146 0 0 1 963 458)"/></g></svg>