<svg width="106" height="46" viewBox="0 0 106 46" fill="none" xmlns="http://www.w3.org/2000/svg">
<path id="Arrow 11" d="M103 26C104.657 26 106 24.6569 106 23C106 21.3431 104.657 20 103 20V26ZM0.878677 20.8787C-0.292892 22.0503 -0.292892 23.9497 0.878677 25.1213L19.9706 44.2132C21.1421 45.3848 23.0416 45.3848 24.2132 44.2132C25.3848 43.0416 25.3848 41.1421 24.2132 39.9706L7.24264 23L24.2132 6.02944C25.3848 4.85786 25.3848 2.95837 24.2132 1.7868C23.0416 0.615223 21.1421 0.615223 19.9706 1.7868L0.878677 20.8787ZM103 20L3 20V26L103 26V20Z" fill="#EBEBEB"/>
</svg>
